# xmcd CD database file
#
# Track frame offsets:
#	150
#	20212
#	41092
#	55237
#	73417
#	92692
#	117232
#	140932
#	160012
#	174172
#	195622
#
# Disc length: 3166 seconds
#
# Revision: 1
# Processed by: cddbd v1.5.2PL0 Copyright (c) Steve Scherf et al.
# Submitted via: CDex 1.51
#
DISCID=a00c5c0b
DTITLE=Martha Tilston - Of Milkmaids and Architects
DYEAR=2006
DGENRE=New Age
TTITLE0=Winter Flowers 
TTITLE1=Artificial (The Office Song) 
TTITLE2=Polly Vaughan 
TTITLE3=Music Of The Moon
TTITLE4=Milkmaid
TTITLE5=Architect 
TTITLE6=Good World 
TTITLE7=Songs That Make Sophie Fizz 
TTITLE8=SIlver Dagger
TTITLE9=Tulip Effect 
TTITLE10=Scientist
EXTD=YEAR: 2006
EXTT0=
EXTT1=
EXTT2=
EXTT3=
EXTT4=
EXTT5=
EXTT6=
EXTT7=
EXTT8=
EXTT9=
EXTT10=
PLAYORDER=
